<?xml version="1.0" encoding="utf-8"?>
<svg width="207.00781px" height="35.52539px" viewBox="0 0 207.00781 35.52539" version="1.1" xmlns:xlink="http://www.w3.org/1999/xlink" xmlns="http://www.w3.org/2000/svg">
  <defs>
    <linearGradient gradientUnits="userSpaceOnUse" x1="0" y1="0" x2="207.00781" y2="35.52539" id="gradient_1">
      <stop offset="0%" stop-color="#777777" />
      <stop offset="100%" stop-color="#000000" />
    </linearGradient>
  </defs>
  <g id="Whyte-WebArt---vColored" transform="translate(-1.6628418 -8.544434)">
    <path d="M48.2239 16.4054C49.8364 17.0101 50.9954 17.5644 51.7008 18.0683C52.4063 18.5722 52.7086 19.2272 52.6079 20.0335C52.5071 20.8397 52.2551 21.394 51.852 21.6964C51.7656 21.7612 51.6792 21.7936 51.5928 21.7936C51.2761 21.7936 50.9594 21.358 50.6426 20.487C50.1387 19.3784 49.3325 18.2698 48.2239 17.1612L48.2239 37.2671C48.2239 38.9804 48.2743 40.8448 48.375 42.8605L45.9563 43.9187C46.0571 40.996 46.1075 38.3757 46.1075 36.0577L46.1075 14.7425C46.1075 13.0292 46.0571 10.9632 45.9563 8.54443L49.5844 10.2073L48.2239 11.2655L48.2239 16.4054L48.2239 16.4054ZM94.0289 18.3706C94.0289 30.162 94.0793 37.8717 94.1801 41.4999L92.0637 42.7092L92.0637 39.5346L84.2027 39.5346L84.2027 42.1045L82.0863 43.3139C82.1871 38.5772 82.2375 33.8657 82.2375 29.1793C82.2375 24.493 82.1871 19.8319 82.0863 15.1959L84.3539 16.5565L85.8656 16.5565C86.8734 13.1299 87.4277 10.5096 87.5285 8.69556L90.8543 10.5096C89.8465 11.0135 88.4859 13.0292 86.7726 16.5565L91.7613 16.5565L93.273 15.0448L95.5406 17.3124L94.0289 18.3706L94.0289 18.3706ZM8.76792 38.0229C8.76792 39.6354 8.81831 41.2478 8.91909 42.8604L6.65151 44.0697C6.75229 39.4338 6.80268 36.5615 6.80269 35.4529L6.80269 21.9986C5.0894 24.6189 3.4769 26.685 1.96519 28.1967L1.66284 27.7432C3.4769 25.0221 5.1146 21.923 6.57593 18.4461C8.03726 14.9691 9.17104 11.7693 9.97729 8.84668L13.4542 10.8119C12.3457 11.5174 11.4386 12.626 10.7332 14.1377C10.0277 15.6494 9.27183 17.3123 8.46558 19.1264L9.97729 20.3357L8.76792 20.9404L8.76792 38.0229L8.76792 38.0229ZM62.7363 19.4287C62.7363 13.9865 62.6859 10.4592 62.5851 8.84668L66.3644 10.5096L64.8527 11.5678L64.8527 19.4287L69.2367 19.4287L71.3531 17.3123L74.3765 20.3357L64.8527 20.3357L64.8527 28.6502L68.7832 28.6502L70.7484 26.685L73.6207 29.5572L64.8527 29.5572L64.8527 40.1393L70.7484 40.1393L72.8648 38.0229L75.8883 41.0463L56.0847 41.0463C54.7746 41.0463 53.5652 41.1975 52.4566 41.4998L51.0961 40.1393L62.7363 40.1393L62.7363 29.5572L59.5617 29.5572C58.2515 29.5572 57.0422 29.7084 55.9336 30.0107L54.573 28.6502L62.7363 28.6502L62.7363 20.3357L56.5383 20.3357C55.2281 23.5607 53.7668 26.1811 52.1543 28.1967L51.7008 27.8943C52.9101 25.4756 53.9179 22.7797 54.7242 19.8066C55.5304 16.8336 56.0343 14.3897 56.2359 12.4748L59.7129 14.1377L58.3523 15.0447L56.8406 19.4287L62.7363 19.4287L62.7363 19.4287ZM101.436 8.84668L104.762 10.8119C103.956 11.3158 102.696 13.3818 100.983 17.01L109.146 17.01L110.809 15.3471L113.077 17.6146L111.716 18.6729C111.514 30.4643 111.237 37.141 110.885 38.7031C110.532 40.2652 110.028 41.3486 109.373 41.9533C108.718 42.558 107.685 43.1123 106.274 43.6162C105.77 42.0037 104.107 40.7943 101.285 39.9881L101.285 39.2322C103.805 39.7361 105.619 39.9881 106.727 39.9881C107.836 39.9881 108.516 39.1314 108.768 37.4182C109.02 35.7049 109.247 29.2045 109.448 17.917L100.68 17.917C98.8664 20.8397 96.9516 23.3088 94.9359 25.3244L94.4824 25.0221C96.5988 21.7971 98.1609 18.9248 99.1688 16.4053C100.177 13.8857 100.932 11.3662 101.436 8.84668L101.436 8.84668ZM13.9078 16.2541C13.9078 15.1455 13.8574 13.4826 13.7566 11.2654L16.1753 12.626L32.1996 12.626L33.4089 11.1143L35.5253 13.0795L34.316 13.9865L34.316 36.6623C34.316 38.4764 34.3664 40.3912 34.4671 42.4068L32.3507 43.465L32.3507 40.1393L15.873 40.1393L15.873 42.7092L13.7566 43.6162C13.8574 40.5928 13.9078 38.4764 13.9078 37.267L13.9078 16.2541L13.9078 16.2541ZM152.725 33.3305C152.886 33.3104 153.001 33.2854 153.071 33.2553L153.071 32.9846L152.816 32.774C152.796 32.5535 152.766 32.3028 152.725 32.0221C152.715 31.9619 152.71 31.9018 152.71 31.8416C152.71 31.6511 152.821 31.4306 153.041 31.1799L152.996 31.1348C152.976 30.9643 152.921 30.829 152.831 30.7287C152.771 30.6586 152.72 30.5382 152.68 30.3678C152.61 30.057 152.575 29.8214 152.575 29.661L152.68 28.4729L152.68 27.4352L152.891 27.1946C152.68 27.1244 152.575 27.0742 152.575 27.0442C152.635 26.2822 152.665 25.8962 152.665 25.8862C152.665 25.7458 152.63 25.4099 152.56 24.8785L152.62 24.8184L152.575 24.0664C152.695 23.9963 152.831 23.9461 152.981 23.916C153.061 23.896 153.147 23.8559 153.237 23.7957C153.197 23.6353 153.106 23.4949 152.966 23.3746C152.986 23.2844 152.996 23.2192 152.996 23.1791C152.996 23.0688 152.951 22.9235 152.861 22.743L152.56 22.9385C152.41 22.5976 152.334 22.3319 152.334 22.1414C152.334 22.0713 152.359 21.9259 152.41 21.7053L152.38 20.8631L152.38 20.427L152.319 20.1262L152.365 19.4946C152.214 18.5621 152.139 18.0508 152.139 17.9606C152.139 17.8202 152.179 17.6748 152.259 17.5244C152.299 17.4442 152.324 17.3189 152.334 17.1485C152.435 17.0582 152.485 16.973 152.485 16.8928L152.485 16.8026L152.545 16.4115L152.109 16.4567C152.109 16.2461 152.074 16.0055 152.004 15.7348L151.943 15.3287C151.843 14.7573 151.793 14.3161 151.793 14.0053C151.793 13.7948 151.823 13.5642 151.883 13.3135C151.773 13.3436 151.557 13.3636 151.237 13.3737L150.455 13.5391C150.424 13.5391 150.364 13.524 150.274 13.494C150.424 13.0929 150.51 12.8924 150.53 12.8924C150.75 12.7721 150.906 12.6718 150.996 12.5916L150.996 12.5164C151.196 12.4763 151.327 12.4463 151.387 12.4262C151.638 12.356 151.793 12.3209 151.853 12.3209C151.873 12.3209 152.014 12.346 152.274 12.3961C152.354 12.4162 152.435 12.4262 152.515 12.4262C152.645 12.4262 152.956 12.3159 153.447 12.0953C153.487 12.0853 153.708 12.0803 154.109 12.0803C154.189 12.0803 154.535 12.0402 155.147 11.96C155.197 11.95 155.232 11.9449 155.252 11.9449C155.392 11.9449 155.623 11.9901 155.944 12.0803C156.104 12.1304 156.255 12.1555 156.395 12.1555C156.475 12.1555 156.666 12.1304 156.966 12.0803C157.107 12.3309 157.227 12.4713 157.327 12.5014C157.418 12.5214 157.588 12.5315 157.839 12.5315L157.944 12.336C158.195 12.2758 158.415 12.1856 158.606 12.0653C159.107 12.1254 159.558 12.1605 159.959 12.1705C160.471 12.1906 161.072 12.2658 161.764 12.3961L162.32 12.3961L163.253 12.5014C163.483 12.5114 163.619 12.5214 163.659 12.5315C163.769 12.5615 163.904 12.6518 164.065 12.8022C164.255 12.7721 164.396 12.7571 164.486 12.7571C164.686 12.7571 165.323 12.9626 166.396 13.3737C166.887 13.524 167.168 13.6393 167.238 13.7196C167.439 13.9502 167.539 14.261 167.539 14.652C167.539 15.1232 167.273 15.7498 166.742 16.5319L166.321 17.2086C165.759 17.6999 165.393 18.0608 165.223 18.2914L164.576 18.2914L164.516 18.3365L164.516 18.8028C164.306 18.9231 164.17 18.9983 164.11 19.0283C163.599 19.3291 163.158 19.5397 162.787 19.66L162.245 19.9156C161.854 19.9858 161.619 20.036 161.538 20.066C161.458 20.1061 161.363 20.1713 161.253 20.2615C161.453 20.3618 161.609 20.422 161.719 20.442C161.739 20.452 162.075 20.4771 162.726 20.5172C163.007 20.5373 163.348 20.6175 163.749 20.7578C164.311 20.9483 164.737 21.0787 165.027 21.1489C165.248 21.189 165.464 21.2692 165.674 21.3895C165.634 21.5499 165.614 21.6903 165.614 21.8106C165.614 21.961 165.749 22.1013 166.02 22.2317C166.1 22.1414 166.225 21.9058 166.396 21.5248C166.627 21.5349 166.872 21.59 167.133 21.6903C167.614 21.8808 167.94 22.0111 168.11 22.0813C168.221 22.1013 168.316 22.2417 168.396 22.5024L168.802 22.6828L168.847 22.8483L169.073 22.743L169.223 22.9084C169.354 22.7781 169.479 22.7129 169.599 22.7129C169.83 22.7129 170.166 22.8533 170.607 23.134C171.399 23.6453 171.965 24.0213 172.306 24.2619C172.467 24.3823 172.662 24.5878 172.893 24.8785C172.853 24.9688 172.833 25.0339 172.833 25.0741C172.833 25.1442 172.873 25.2395 172.953 25.3598C173.073 25.2395 173.174 25.1793 173.254 25.1793C173.294 25.1793 173.725 25.4801 174.547 26.0817L174.743 26.3674C174.943 26.4777 175.073 26.5529 175.134 26.593C175.164 26.6231 175.294 26.7985 175.525 27.1194C175.825 27.4803 176.031 27.761 176.141 27.9615C175.891 28.1721 175.765 28.3726 175.765 28.5631C175.765 28.6132 175.77 28.6784 175.78 28.7586L176.292 28.6834C176.492 28.9541 176.643 29.2048 176.743 29.4354C176.793 29.5657 176.898 29.9467 177.059 30.5783C177.279 31.0596 177.395 31.4005 177.405 31.601L177.405 31.616L177.359 32.1725L177.359 32.759C177.349 32.9595 177.169 33.2453 176.818 33.6162C176.828 33.6964 176.903 33.7716 177.044 33.8418C177.034 33.9621 177.029 34.0674 177.029 34.1576C177.029 34.2078 177.034 34.2579 177.044 34.308C177.064 34.4685 177.074 34.5737 177.074 34.6239C177.074 34.684 176.758 35.1452 176.126 36.0074L175.795 36.2481L175.449 36.5639C175.189 36.7343 175.033 36.8396 174.983 36.8797C174.953 36.9198 174.863 37.0752 174.713 37.3459C174.452 37.6968 173.925 38.0277 173.133 38.3385L172.938 38.158C172.637 38.1881 172.427 38.2282 172.306 38.2783C172.186 38.3385 172.046 38.4889 171.885 38.7295C172.096 38.7496 172.201 38.8348 172.201 38.9852C172.201 39.0453 172.171 39.1155 172.111 39.1957C172.031 39.306 171.64 39.4263 170.938 39.5567C170.727 39.5968 170.271 39.7772 169.569 40.0981C169.419 40.1582 169.278 40.2134 169.148 40.2635C168.737 40.4139 168.496 40.5091 168.426 40.5492C168.306 40.6094 168.221 40.6395 168.171 40.6395C168.11 40.6395 168.015 40.5944 167.885 40.5041L167.434 40.6545L167.298 40.8801C167.098 40.9202 166.967 40.9453 166.907 40.9553C166.606 41.0054 166.406 41.0556 166.306 41.1057L165.915 41.3313C165.524 41.221 165.308 41.1658 165.268 41.1658C165.218 41.1658 165.113 41.241 164.952 41.3914C164.902 41.4516 164.792 41.4917 164.621 41.5117C164.2 41.5819 163.874 41.6822 163.644 41.8125L163.268 41.4666L163.178 41.4666C163.057 41.4566 162.932 41.4315 162.802 41.3914L162.501 41.8125L159.553 41.9028L158.906 41.7373L159.012 41.2862L158.591 41.1959C158.48 41.3263 158.33 41.4215 158.139 41.4817C157.819 41.5819 157.633 41.6321 157.583 41.6321C157.573 41.6321 157.197 41.5468 156.455 41.3764L156.199 41.241L155.688 41.2711C155.448 41.1709 155.227 41.1157 155.026 41.1057C154.896 41.0957 154.63 41.0756 154.229 41.0455L153.823 41.0907L153.237 41.0455L151.868 40.9854L151.793 40.9703C151.332 41.0305 151.056 41.0606 150.966 41.0606C150.445 41.0606 150.184 40.9453 150.184 40.7147C150.184 40.6746 150.209 40.6345 150.259 40.5944C150.45 40.4139 150.645 40.2836 150.846 40.2033L152.004 39.7522C152.104 39.7121 152.204 39.6068 152.304 39.4364C152.385 39.286 152.425 39.1757 152.425 39.1055L152.395 38.6844L153.718 38.3084L152.62 38.0076C152.46 37.9675 152.38 37.8472 152.38 37.6467C152.38 37.5966 152.445 37.4462 152.575 37.1955L152.59 36.3383L152.59 36.0977C152.59 36.0074 152.505 35.7819 152.334 35.4209L153.778 34.8043L152.365 34.3531C152.485 34.2128 152.55 34.1326 152.56 34.1125C152.59 34.0825 152.615 33.9671 152.635 33.7666C152.635 33.6864 152.665 33.541 152.725 33.3305L152.725 33.3305ZM119.429 12.0953C119.559 12.386 119.639 12.6066 119.669 12.757C119.69 12.8372 119.745 13.2633 119.835 14.0353L120 14.5918L119.985 14.9978C119.985 15.0881 120.035 15.3036 120.136 15.6445C120.086 15.6545 120.04 15.6796 120 15.7197C119.88 15.84 119.82 15.9302 119.82 15.9904C119.82 16.1007 119.85 16.236 119.91 16.3965C120.151 16.4265 120.286 16.4867 120.316 16.5769C120.346 16.6471 120.376 16.7875 120.406 16.998C120.406 17.0582 120.431 17.1885 120.482 17.389L120.827 17.4342C120.817 18.2062 120.958 18.9581 121.249 19.69C120.988 20.0108 120.858 20.2314 120.858 20.3517C120.858 20.4119 120.903 20.5021 120.993 20.6224C121.093 20.7427 121.153 20.8029 121.173 20.8029L121.354 20.8179C121.394 20.8179 121.429 20.853 121.459 20.9232C121.539 21.0736 121.579 21.239 121.579 21.4195C121.579 21.6401 121.474 21.8256 121.264 21.976L121.324 22.5023C121.364 22.4923 121.389 22.4873 121.399 22.4873C121.529 22.4873 121.705 22.5424 121.925 22.6527C121.986 22.8633 122.081 23.0788 122.211 23.2994C122.301 23.4598 122.361 23.5901 122.392 23.6904L123.204 26.5027C123.354 27.014 123.429 27.2898 123.429 27.3299C123.429 27.3399 123.384 27.5003 123.294 27.8111C123.504 27.9615 123.685 28.1821 123.835 28.4728L124.031 28.8187L124.151 29.4052L124.317 30.067L123.113 30.473C123.775 30.854 124.226 31.1448 124.467 31.3453L124.858 31.3904C124.948 31.8616 125.018 32.2226 125.069 32.4732C125.119 32.6838 125.314 33.2151 125.655 34.0674C125.745 34.6088 125.82 34.9898 125.881 35.2103L126.196 35.2103L126.437 35.7818L126.497 35.7818C126.587 35.461 126.653 35.2504 126.693 35.1502C126.813 34.7993 126.883 34.5085 126.903 34.2779C126.933 33.9871 126.968 33.7766 127.009 33.6463L127.685 31.616C127.715 31.5258 127.745 31.4054 127.776 31.2551C127.836 30.9142 127.876 30.7237 127.896 30.6836L128.287 29.7963L128.392 29.3301L128.588 28.8789C128.848 27.7459 128.994 27.1544 129.024 27.1043C129.084 27.004 129.189 26.8837 129.34 26.7433C129.31 26.5929 129.294 26.5077 129.294 26.4877C129.294 26.3774 129.43 25.6756 129.701 24.3822C129.771 24.0413 129.981 23.52 130.332 22.8181C130.412 22.1965 130.493 21.7554 130.573 21.4947C131.034 20.1713 131.265 19.2038 131.265 18.5922C131.265 18.542 131.235 18.3766 131.174 18.0959L132.212 17.4041L132.573 16.8927C133.044 16.5619 133.28 16.3864 133.28 16.3664C133.28 16.3163 133.225 16.2711 133.114 16.231C132.603 16.0405 132.052 15.9102 131.46 15.84L132.047 14.8625C131.876 14.672 131.791 14.5166 131.791 14.3963C131.791 14.2459 131.851 14.0153 131.971 13.7045C132.012 13.5842 132.142 13.4338 132.362 13.2533L132.829 12.9074C133.28 12.5164 133.525 12.3109 133.566 12.2908C133.646 12.2507 133.721 12.2306 133.791 12.2306L133.896 12.2306L134.498 12.772C133.515 13.143 133.024 13.4638 133.024 13.7345C133.024 13.8549 133.24 14.1105 133.671 14.5015C133.801 14.6219 134.042 14.9377 134.393 15.449L134.949 16.1107C134.949 16.1809 134.854 16.3163 134.663 16.5168C134.734 16.8476 134.859 17.1183 135.039 17.3289C135.35 17.6898 135.516 17.8853 135.536 17.9154C135.556 17.9455 135.616 18.1209 135.716 18.4418C135.756 18.5621 135.912 19.0684 136.182 19.9607C136.293 20.7728 136.363 21.219 136.393 21.2992C136.433 21.4195 136.538 21.5849 136.709 21.7955L136.664 21.8406C136.152 21.9308 135.877 22.0161 135.836 22.0963L135.927 22.2316C136.027 22.392 136.077 22.6477 136.077 22.9986L136.904 23.8709L137.265 24.5928C137.436 24.8033 137.521 24.9437 137.521 25.0138L137.521 25.089L137.401 25.089L137.31 25.1793C137.34 25.3798 137.36 25.5151 137.37 25.5853C137.411 25.836 137.491 26.0916 137.611 26.3523L137.912 26.3523C138.062 26.6631 138.258 27.2196 138.498 28.0217L138.754 28.8488L138.799 29.5105C138.96 29.7612 139.065 29.9767 139.115 30.1572C139.285 30.6986 139.371 31.0094 139.371 31.0896C139.371 31.1799 139.351 31.2701 139.311 31.3603C139.21 31.621 139.16 31.7664 139.16 31.7965C139.16 31.9168 139.24 32.0521 139.401 32.2025C139.471 32.2627 139.541 32.2927 139.611 32.2927C139.681 32.2927 139.777 32.2677 139.897 32.2176C139.967 32.4682 140.052 32.8592 140.153 33.3906C140.183 33.4909 140.303 33.7515 140.514 34.1726C140.594 34.0824 140.689 33.9972 140.799 33.917C140.97 33.7866 141.055 33.5861 141.055 33.3154C141.055 33.2051 141 33.0447 140.89 32.8342C141.05 32.7539 141.15 32.6788 141.19 32.6086C141.251 32.4883 141.376 32.0972 141.566 31.4355L141.521 31.1047L141.657 30.6234L141.792 29.9767L142.002 29.6609L142.153 29.1045L142.499 28.1119L142.815 26.5177C143.035 25.856 143.166 25.46 143.206 25.3297C143.266 25.1492 143.381 24.9537 143.552 24.7431C143.572 24.4524 143.752 23.6754 144.093 22.4121C144.233 21.6401 144.364 21.0987 144.484 20.7879C144.584 20.5472 144.634 20.3618 144.634 20.2314C144.634 20.2214 144.574 19.9808 144.454 19.5095L144.77 18.6222C144.83 18.0708 144.885 17.6898 144.935 17.4793C145.035 17.4893 145.121 17.4943 145.191 17.4943C145.301 17.4943 145.426 17.4542 145.567 17.374C145.567 17.1735 145.416 17.003 145.116 16.8627C145.126 16.6321 145.191 16.2812 145.311 15.8099L145.311 15.0429L145.416 14.6369C145.436 14.2158 145.472 13.9301 145.522 13.7797C145.802 13.0879 146.233 12.6868 146.815 12.5765C147.036 12.2858 147.206 12.1204 147.326 12.0802C147.336 12.0502 147.472 12.0151 147.732 11.975C147.783 12.0853 147.808 12.1705 147.808 12.2306C147.808 12.3209 147.793 12.4211 147.762 12.5314C147.712 12.7119 147.682 13.0177 147.672 13.4488L147.552 13.8549C147.522 14.2258 147.472 14.5066 147.402 14.697C147.341 14.8575 147.216 15.078 147.026 15.3588C147.056 15.5092 147.071 15.6395 147.071 15.7498C147.071 15.7999 147.031 15.9553 146.95 16.216C146.94 16.2461 146.935 16.2912 146.935 16.3513C146.935 16.4316 146.94 16.5218 146.95 16.622C146.82 16.8025 146.755 16.9479 146.755 17.0582C146.755 17.1083 146.76 17.1635 146.77 17.2236C146.569 17.2637 146.454 17.3088 146.424 17.359L146.499 17.9455L146.499 18.0056C146.499 18.1159 146.444 18.3265 146.334 18.6373C146.183 18.6573 146.035 18.7024 145.89 18.7726C145.745 18.8428 145.677 18.903 145.687 18.9531L145.717 19.1035L145.747 19.3742C145.948 19.6449 146.048 19.8003 146.048 19.8404C146.048 19.8504 145.953 20.0159 145.762 20.3367C145.722 20.3969 145.672 20.5322 145.612 20.7427C145.351 21.615 145.211 22.1263 145.191 22.2767C145.161 22.4973 145.055 22.8382 144.875 23.2994C144.795 23.54 144.689 23.7255 144.559 23.8558L144.559 24.0965C144.559 24.1967 144.549 24.3371 144.529 24.5176C144.509 24.7582 144.489 24.9086 144.469 24.9687C144.429 25.069 144.319 25.1843 144.138 25.3146L144.138 25.5552L143.672 27.5103C143.531 28.2422 143.436 28.6984 143.386 28.8789C143.326 29.1195 143.201 29.4504 143.01 29.8715C142.729 30.0018 142.589 30.1472 142.589 30.3076C142.589 30.448 142.689 30.6084 142.89 30.7888C142.87 31.0194 142.795 31.2901 142.664 31.601L142.8 32.3379L142.634 32.5183C142.564 32.6487 142.394 33.165 142.123 34.0674L142.033 34.9547L141.807 35.8871C141.807 35.9272 141.847 36.0174 141.927 36.1578C141.717 36.2982 141.601 36.3984 141.581 36.4586C141.521 36.4987 141.456 36.6641 141.386 36.9549C141.566 37.1855 141.657 37.3559 141.657 37.4662C141.657 37.4963 141.611 37.7218 141.521 38.1429C141.561 38.534 141.581 38.7545 141.581 38.8047C141.581 38.8849 141.576 39.0804 141.566 39.3912L141.566 39.8424C141.376 39.9627 141.251 40.0379 141.19 40.0679C140.829 40.2584 140.584 40.4339 140.453 40.5943L140.288 40.5943C140.188 40.4439 140.093 40.2234 140.002 39.9326L139.611 39.0002L139.461 38.6242C139.27 38.3635 139.14 38.0728 139.07 37.7519C139.03 37.6015 139.005 37.5113 138.995 37.4812C138.914 37.1804 138.874 36.9649 138.874 36.8345C138.874 36.7443 138.935 36.604 139.055 36.4135L139.025 36.3683L138.829 36.3383C138.789 36.248 138.689 36.1177 138.528 35.9472C138.398 35.7668 138.238 35.1151 138.047 33.9922C137.977 33.0998 137.912 32.5384 137.852 32.3078C137.661 32.2577 137.546 32.1925 137.506 32.1123C137.466 32.0421 137.385 31.6461 137.265 30.9242L136.859 29.5857L136.709 28.8488C136.689 28.7786 136.513 28.3275 136.182 27.4953C136.062 27.1845 135.997 26.9088 135.987 26.6681C135.977 26.5278 135.942 26.3523 135.882 26.1418C136.062 25.9713 136.152 25.831 136.152 25.7207C136.152 25.6806 136.122 25.6054 136.062 25.4951C135.952 25.6154 135.857 25.6756 135.776 25.6756C135.696 25.6756 135.611 25.5552 135.521 25.3146C135.2 24.4323 135.009 23.7054 134.949 23.134C135.14 23.0237 135.235 22.9134 135.235 22.8031C135.235 22.783 135.175 22.6728 135.054 22.4722C135.044 22.4522 135.039 22.4271 135.039 22.397C135.039 22.3068 135.069 22.1915 135.13 22.0511C134.939 22.0612 134.683 22.1263 134.363 22.2467C134.252 22.1263 134.167 21.9158 134.107 21.615C134.027 21.3543 133.811 20.6976 133.46 19.6449C133.37 19.4845 133.305 19.319 133.265 19.1486L133.144 18.7576L133.069 18.3064C133.049 18.2262 132.944 18.1009 132.753 17.9304C132.583 18.1811 132.483 18.3766 132.453 18.517C132.443 18.547 132.367 18.9631 132.227 19.7652L132.032 20.2765L131.986 20.7879L131.851 21.0586L131.761 21.6451L131.445 22.2166L131.174 23.2693C130.944 23.7004 130.823 23.9962 130.813 24.1566C130.783 24.688 130.713 25.1592 130.603 25.5703L130.061 27.5103L129.58 29.5556C129.4 30.2875 129.279 30.7036 129.219 30.8039C129.189 30.854 129.079 30.9844 128.888 31.1949C128.748 31.7965 128.628 32.1975 128.527 32.398L128.783 32.5935C128.653 32.9043 128.447 33.5911 128.167 34.6539L127.926 35.5863L127.866 36.0224L127.776 36.4736L127.745 36.8345L127.595 37.4361L127.52 37.7519C127.41 38.0928 127.354 38.2833 127.354 38.3234C127.354 38.4738 127.405 38.6392 127.505 38.8197C127.755 39.2909 127.881 39.5717 127.881 39.6619C127.881 39.722 127.735 39.9125 127.445 40.2334C127.284 40.5542 127.169 40.7447 127.099 40.8049C127.039 40.855 126.793 40.9552 126.362 41.1056C126.061 41.246 125.881 41.3162 125.82 41.3162C125.74 41.3162 125.625 41.261 125.475 41.1508C125.374 40.469 125.309 39.8323 125.279 39.2408C125.259 39.1205 125.159 38.7445 124.978 38.1129L124.708 38.0226C124.647 37.782 124.462 37.2406 124.151 36.3984C124.101 36.258 124.076 36.1277 124.076 36.0074C124.076 35.867 124.156 35.5612 124.317 35.09C124.156 35.0499 124.051 35.0148 124.001 34.9847C123.83 34.9045 123.725 34.8644 123.685 34.8644C123.645 34.8644 123.585 34.8895 123.504 34.9396C123.414 34.8394 123.359 34.694 123.339 34.5035C123.309 34.2027 123.264 33.9571 123.204 33.7666C123.154 33.5861 123.128 33.4608 123.128 33.3906C123.128 33.3004 123.189 33.165 123.309 32.9845L122.933 32.8793C122.903 32.6888 122.823 32.4482 122.692 32.1574C122.672 32.1073 122.587 31.7463 122.437 31.0746C122.366 30.7838 122.261 30.4981 122.121 30.2174C122.051 30.067 122.016 29.9416 122.016 29.8414C122.016 29.8213 122.056 29.7311 122.136 29.5707C122.186 29.4504 122.216 29.3451 122.226 29.2549C122.136 29.1345 121.96 29.0493 121.7 28.9992C121.66 28.5982 121.605 28.3325 121.534 28.2021L121.188 27.5554C121.178 27.5254 121.173 27.4301 121.173 27.2697L121.444 27.1043C121.514 26.8937 121.549 26.7032 121.549 26.5328C121.549 26.4526 121.499 26.3172 121.399 26.1267C121.299 26.217 121.224 26.2621 121.173 26.2621C121.123 26.2621 121.048 26.217 120.948 26.1267L120.632 26.1267C120.572 25.9563 120.462 25.5202 120.301 24.8183L119.925 23.3746L119.955 22.7881C119.955 22.397 119.75 22.1464 119.339 22.0361C119.278 21.6752 119.193 21.3443 119.083 21.0435L118.451 19.314C118.441 19.284 118.421 19.1336 118.391 18.8629L118.602 18.6674C118.471 18.4368 118.271 17.9956 118 17.3439L117.805 17.2988C117.634 16.8376 117.484 16.3012 117.353 15.6896C116.972 14.8274 116.782 14.3562 116.782 14.276C116.782 14.1556 116.822 14.0554 116.902 13.9752C116.942 13.9551 117.063 13.91 117.263 13.8398C117.414 13.5791 117.509 13.4288 117.549 13.3886C117.579 13.3586 117.724 13.2483 117.985 13.0578L118.226 12.8623C118.577 12.5916 118.782 12.4462 118.842 12.4261L119.113 12.381C119.193 12.371 119.299 12.2758 119.429 12.0953L119.429 12.0953ZM178.608 40.7147C178.678 40.5844 178.723 40.5092 178.743 40.4891L179.179 40.2184C179.289 40.1382 179.49 39.8976 179.781 39.4965C179.811 39.4564 179.926 39.3612 180.127 39.2108C180.237 39.1306 180.332 39.0153 180.412 38.8649C180.402 38.7747 180.397 38.6945 180.397 38.6243C180.397 38.4137 180.533 38.1881 180.803 37.9475C181.184 37.5866 181.415 37.3459 181.495 37.2256L182.322 35.7217C182.332 35.7117 182.428 35.6816 182.608 35.6315L182.668 35.5713C182.658 35.4611 182.653 35.3658 182.653 35.2856C182.653 35.1653 182.663 35.0901 182.683 35.06L183.059 34.5637L184.548 32.2477L184.578 32.0973C184.498 32.0372 184.438 32.0071 184.398 32.0071C184.378 32.0071 184.323 32.0171 184.232 32.0372C184.192 32.0472 184.142 32.0522 184.082 32.0522C184.002 32.0522 183.906 32.0472 183.796 32.0372C183.736 31.8467 183.706 31.7063 183.706 31.6161C183.706 31.5659 183.771 31.4506 183.901 31.2702C183.982 31.0095 184.067 30.809 184.157 30.6686C184.307 30.4581 184.428 30.2876 184.518 30.1573C184.719 30.1573 184.859 30.1723 184.939 30.2024L185.601 30.428L185.646 30.3979C185.676 30.2876 185.691 30.2074 185.691 30.1573C185.691 30.0771 185.666 29.9618 185.616 29.8114C185.796 29.6911 185.897 29.6058 185.917 29.5557L186.217 28.9842C186.288 28.8439 186.483 28.6283 186.804 28.3375C186.834 28.0969 186.867 27.9515 186.902 27.9014C186.937 27.8513 187.13 27.6708 187.481 27.36C187.511 27.3199 187.626 27.0492 187.827 26.5479C187.887 26.4176 188.162 25.9864 188.654 25.2545L189.646 23.3295L190.052 22.8934C190.072 22.7129 190.092 22.6077 190.113 22.5776C190.133 22.5475 190.273 22.342 190.534 21.961C190.554 21.9309 190.564 21.8958 190.564 21.8557C190.564 21.7855 190.554 21.7053 190.534 21.6151C190.624 21.5349 190.719 21.3945 190.819 21.194C190.91 21.0035 191.005 20.8331 191.105 20.6827L191.406 21.1188C191.456 20.9985 191.481 20.9133 191.481 20.8631C191.481 20.7829 191.441 20.6626 191.361 20.5022C191.461 20.2616 191.536 20.1112 191.586 20.051C191.777 19.7703 191.872 19.6049 191.872 19.5547C191.882 19.5447 191.887 19.4344 191.887 19.2239C191.887 19.1938 191.942 19.0835 192.053 18.893C192.093 18.8329 192.193 18.5872 192.353 18.1561C192.373 18.0959 192.429 17.9606 192.519 17.75L193.165 17.6899L193.105 17.4944L192.714 17.3139L192.714 17.0733C192.865 16.953 192.975 16.8176 193.045 16.6672L192.88 16.5168L192.88 16.4567C193.03 16.3163 193.176 16.1208 193.316 15.8702C193.446 15.6295 193.561 15.429 193.662 15.2686C193.582 15.1282 193.541 15.0129 193.541 14.9227L193.541 14.3512L194.76 13.509L195.045 13.7196C195.146 13.5291 195.206 13.4038 195.226 13.3436C195.296 13.1732 195.366 13.0879 195.436 13.0879C195.507 13.0879 195.587 13.108 195.677 13.1481C195.727 12.9375 195.827 12.7821 195.978 12.6819C196.178 12.5315 196.359 12.4563 196.519 12.4563C196.82 12.4563 196.985 12.8223 197.015 13.5542C197.126 14.0354 197.186 14.3663 197.196 14.5467C197.236 14.8575 197.366 15.2084 197.587 15.5995C197.717 16.1208 197.782 16.4617 197.782 16.6221L197.782 16.9831L197.181 17.2989C197.271 17.4994 197.356 17.6247 197.437 17.6749C197.487 17.6949 197.712 17.7651 198.113 17.8854C198.304 17.9456 198.504 18.2413 198.715 18.7727C198.865 19.1437 198.94 19.3693 198.94 19.4495C198.94 19.5096 198.88 19.6349 198.76 19.8254C198.92 19.9859 199.026 20.0861 199.076 20.1262C199.326 20.3468 199.462 20.4821 199.482 20.5323L199.662 20.9985L199.963 21.7504C199.993 21.8106 200.018 21.976 200.038 22.2467C200.349 22.5676 200.525 22.8984 200.565 23.2393C200.595 23.51 200.61 23.6504 200.61 23.6604L200.941 24.1717L201.572 25.435L201.226 25.6456C201.287 25.8361 201.367 25.9764 201.467 26.0667L201.693 26.1118L201.648 26.4426C202.67 27.4152 203.197 28.3626 203.227 29.285C203.267 29.5056 203.482 29.9718 203.873 30.6836C204.415 31.7063 204.715 32.3028 204.776 32.4733C204.856 32.6939 204.966 32.9094 205.106 33.12L206.039 35.1803L206.009 35.6165C206.61 35.9373 206.911 36.2431 206.911 36.5338C206.911 36.6742 206.766 36.8146 206.475 36.9549C206.555 37.1254 206.635 37.2306 206.716 37.2708C206.736 37.2908 206.836 37.3309 207.016 37.3911C207.157 37.4412 207.307 37.6267 207.468 37.9475C207.548 38.0979 207.678 38.4588 207.859 39.0303C208.29 39.692 208.56 40.1232 208.671 40.3237C208.48 40.4741 208.385 40.6345 208.385 40.8049C208.385 40.8651 208.39 40.9403 208.4 41.0305C208.059 41.1809 207.819 41.2711 207.678 41.3012C207.628 41.3213 207.453 41.3363 207.152 41.3463C207.011 41.3564 206.661 41.4767 206.099 41.7073C205.838 41.1157 205.683 40.6946 205.633 40.444C205.593 40.2334 205.498 40.0079 205.347 39.7672C205.076 39.0253 204.941 38.6092 204.941 38.519C204.941 38.4488 204.946 38.3686 204.956 38.2784C204.776 38.1079 204.67 37.9575 204.64 37.8272C204.63 37.7971 204.62 37.6417 204.61 37.361C204.59 37.2507 204.58 37.1755 204.58 37.1354C204.58 37.0151 204.63 36.8497 204.731 36.6391L204.279 36.2331C204.4 36.0827 204.485 35.9824 204.535 35.9323C204.635 35.8521 204.685 35.7819 204.685 35.7217C204.685 35.6616 204.675 35.5914 204.655 35.5112L203.933 35.5713C203.693 35.2505 203.527 34.9948 203.437 34.8043C203.387 34.684 203.307 34.3682 203.197 33.8569L202.971 33.3305C202.851 32.6889 202.76 32.3079 202.7 32.1875C202.53 31.8266 202.249 31.6461 201.858 31.6461C201.507 31.6461 201.312 32.0221 201.272 32.7741C201.191 32.8042 201.141 32.8192 201.121 32.8192C201.011 32.8192 200.87 32.749 200.7 32.6086C200.409 32.4081 200.109 32.2778 199.798 32.2176C199.647 32.1976 199.437 32.1224 199.166 31.992C198.805 31.8216 198.514 31.7364 198.294 31.7364C198.204 31.7364 197.928 31.7865 197.467 31.8868L197.031 31.8116L196.549 31.8567L196.143 31.8567L195.737 31.9168L195.03 31.9319C194.73 31.9419 194.529 31.9469 194.429 31.9469L194.203 31.962L193.271 31.7514L192.82 31.8417C192.499 31.7514 192.323 31.7063 192.293 31.7063C192.233 31.7063 191.992 31.7614 191.571 31.8717C191.261 31.9419 190.985 31.987 190.744 32.0071L190.323 31.5258C190.002 31.586 189.681 31.7013 189.361 31.8717C189.331 31.8918 189.11 31.9319 188.699 31.992C188.548 32.0121 188.468 32.0221 188.458 32.0221C188.338 32.0221 188.188 32.0071 188.007 31.977C187.756 31.9269 187.536 31.9018 187.345 31.9018C187.205 31.9018 186.954 31.9469 186.593 32.0372C186.383 32.0973 186.162 32.1374 185.932 32.1575C185.821 32.3379 185.751 32.4583 185.721 32.5184C185.571 32.8292 185.375 33.13 185.135 33.4208C184.964 33.6915 184.729 34.0875 184.428 34.6088L184.157 34.5487C184.077 34.6289 184.037 34.7041 184.037 34.7743C184.037 34.8344 184.052 34.9397 184.082 35.0901C184.092 35.1502 184.102 35.2355 184.112 35.3458C183.921 35.5663 183.816 35.7017 183.796 35.7518L183.074 37.2106C182.944 37.4211 182.804 37.6517 182.653 37.9024L182.518 38.1129L181.691 38.6393C181.651 38.6694 181.631 38.7245 181.631 38.8047C181.631 38.915 181.746 39.0654 181.976 39.2559L181.751 39.9627C181.51 40.053 181.345 40.1332 181.255 40.2034C181.114 40.3036 180.969 40.5242 180.818 40.8651C180.528 40.9854 180.342 41.0756 180.262 41.1358C180.122 41.2361 180.016 41.2862 179.946 41.2862C179.916 41.2862 179.816 41.2361 179.645 41.1358C179.605 41.1057 179.54 41.0907 179.45 41.0907C179.39 41.0907 179.32 41.0957 179.239 41.1057C179.049 40.9152 178.838 40.7849 178.608 40.7147L178.608 40.7147ZM153.913 16.4867L153.974 16.4867L154.064 16.4416C154.164 16.6421 154.294 16.8125 154.455 16.9529L154.455 19.4794L154.38 19.9005C154.63 19.9607 154.796 20.0008 154.876 20.0208C154.956 20.0409 155.016 20.0509 155.056 20.0509L155.402 20.0208L155.417 20.0208C155.427 20.0208 155.603 20.0459 155.944 20.096C156.365 20.1161 156.796 20.1462 157.237 20.1863C157.197 20.3467 157.177 20.477 157.177 20.5773C157.177 20.8981 157.252 21.0585 157.403 21.0585C157.493 21.0585 157.723 20.8079 158.094 20.3066L158.094 20.081L160.831 19.5246C160.952 19.4945 161.172 19.3742 161.493 19.1636L162.11 18.9531L162.636 18.5921C163.378 18.161 163.879 17.8251 164.14 17.5845C164.521 17.2136 164.722 16.993 164.742 16.9228L165.012 16.1708C165.173 15.7498 165.253 15.5141 165.253 15.464C165.253 15.3437 165.163 15.2033 164.982 15.0429L165.178 14.5917C165.087 14.5516 165.022 14.5316 164.982 14.5316C164.962 14.5316 164.802 14.5917 164.501 14.7121L163.839 13.9902C163.739 14.0002 163.664 14.0052 163.614 14.0052C163.483 14.0052 163.293 13.9751 163.042 13.915C162.942 13.7546 162.882 13.6694 162.862 13.6593L161.358 13.3736L160.801 13.1931L160.32 13.2683L160.034 13.2382L159.628 13.2382L159.072 13.1029L158.485 13.0728L157.974 13.0427L156.696 13.2232L155.553 13.3285C155.242 13.3986 154.986 13.4337 154.786 13.4337L154.425 13.4337C154.325 13.6543 154.269 13.7796 154.259 13.8097L154.154 15.5542C154.144 15.7147 154.014 15.8951 153.763 16.0957L153.793 16.1408C153.853 16.241 153.893 16.3563 153.913 16.4867L153.913 16.4867ZM15.873 13.5331L15.873 39.2323L32.3508 39.2323L32.3508 13.5331L15.873 13.5331L15.873 13.5331ZM17.0824 19.8823L22.8269 19.8823L22.8269 18.3705C22.8269 17.3627 22.7765 16.0526 22.6758 14.4401L25.8504 15.9518L24.641 16.7076L24.641 19.8823L27.3621 19.8823L28.7226 18.5217L30.9902 20.7893L24.641 20.7893L24.641 26.685L26.3039 26.685L27.5133 25.3244L29.6297 26.9873L28.4203 27.8944L28.4203 31.6737C28.4203 33.6893 28.4707 35.1002 28.5715 35.9065L26.6062 36.9647L26.6062 34.5459L21.164 34.5459L21.164 36.36L19.1988 37.267C19.2996 34.8483 19.35 32.6563 19.35 30.691C19.35 28.7258 19.2996 27.0377 19.1988 25.6268L21.3152 26.685L22.8269 26.685L22.8269 20.7893L22.0711 20.7893C20.7609 20.7893 19.5515 20.9405 18.4429 21.2428L17.0824 19.8823L17.0824 19.8823ZM186.909 30.3077C187.13 30.1874 187.265 30.1272 187.315 30.1272C187.385 30.1272 187.491 30.1924 187.631 30.3227L188.097 30.2625L188.278 30.5784C188.488 30.5082 188.774 30.4731 189.135 30.4731L190.473 30.4731C190.724 30.4831 191.06 30.5583 191.481 30.6987C191.922 30.7288 192.248 30.7639 192.459 30.804C192.669 31.1148 192.915 31.2702 193.196 31.2702L194.143 30.804L194.654 30.9092L195.512 30.9092L195.842 30.9995L196.279 30.9393L196.685 30.9844L197.091 30.9543L197.467 31.0596L198.354 30.9092L199.046 30.8641L200.384 30.7288L201.497 30.819C201.657 30.819 201.738 30.7588 201.738 30.6385C201.738 30.5884 201.693 30.418 201.602 30.1272C201.582 30.047 201.567 29.9267 201.557 29.7663C201.367 29.6359 201.226 29.4855 201.136 29.3151C200.785 28.6032 200.585 28.2473 200.535 28.2473C200.434 28.107 200.359 27.9415 200.309 27.751C200.269 27.5806 200.189 27.4001 200.068 27.2096C200.118 26.9489 200.144 26.7284 200.144 26.5479C200.144 26.4476 200.103 26.2822 200.023 26.0516L199.497 26.1268C199.387 25.8962 199.321 25.7458 199.301 25.6756L199.196 25.2997L198.865 24.8334L198.489 24.1717L198.324 23.886C198.254 23.4749 198.123 23.104 197.933 22.7731C197.792 22.5224 197.727 22.3019 197.737 22.1114L198.038 21.976C197.938 21.8156 197.813 21.7354 197.662 21.7354C197.602 21.7354 197.532 21.7404 197.452 21.7504C197.351 21.5399 197.281 21.4045 197.241 21.3444C197.01 21.0035 196.89 20.818 196.88 20.7879L196.79 20.2014L196.564 19.8104L196.339 19.284L195.842 18.6674L195.572 17.7952L195.316 17.344C195.186 17.0733 195.04 16.8226 194.88 16.592C194.629 16.7424 194.459 16.9028 194.369 17.0733C194.198 17.4042 194.118 17.7049 194.128 17.9756L194.038 17.9756C193.867 18.2664 193.647 18.6023 193.376 18.9833L192.504 20.6376C192.343 20.9183 192.238 21.1589 192.188 21.3594C192.007 21.4697 191.892 21.6101 191.842 21.7805C191.651 22.2116 191.381 22.4874 191.03 22.6077L191.105 23.0288L190.879 23.134L190.864 23.134C190.674 23.114 190.509 23.0989 190.368 23.0889L190.248 23.2844L190.639 23.525C190.519 23.9161 190.343 24.3121 190.113 24.7131C189.641 25.6155 189.195 26.197 188.774 26.4577C188.674 26.5178 188.614 26.6782 188.594 26.9389C188.584 27.1294 188.538 27.3099 188.458 27.4803L188.052 28.2323L187.706 28.6083L187.526 29.0293C187.295 29.4003 187.155 29.651 187.105 29.7813C187.045 29.9618 186.979 30.1372 186.909 30.3077L186.909 30.3077ZM84.2028 17.4635L84.2028 27.1385L92.0637 27.1385L92.0637 17.4635L84.2028 17.4635L84.2028 17.4635ZM43.9911 18.3706C44.2934 21.394 44.3438 23.2837 44.1422 24.0396C43.9407 24.7954 43.6131 25.2993 43.1596 25.5513C42.7061 25.8032 42.3282 25.9292 42.0258 25.9292C41.8243 25.9292 41.5471 25.8536 41.1944 25.7024C40.8417 25.5513 40.6653 25.4253 40.6653 25.3245C40.6653 24.9214 41.018 24.3167 41.7235 23.5104C42.6305 22.4019 43.1848 20.6886 43.3864 18.3706L43.9911 18.3706L43.9911 18.3706ZM154.109 35.5261L154.244 36.0224L154.711 35.9472C154.831 36.228 154.891 36.4736 154.891 36.6842L154.891 36.7593C154.891 36.8797 154.881 37.02 154.861 37.1804C154.831 37.3308 154.816 37.411 154.816 37.4211C154.956 38.163 155.026 38.554 155.026 38.5941C155.026 38.8047 154.906 39.0303 154.665 39.2709C154.565 39.2408 154.475 39.2258 154.395 39.2258C154.335 39.2258 154.264 39.2759 154.184 39.3761C154.425 39.5366 154.701 39.6418 155.011 39.692C155.282 39.722 155.528 39.7972 155.748 39.9176L155.808 40.2183C155.979 40.1883 156.124 40.093 156.245 39.9326C156.585 40.093 156.966 40.2133 157.388 40.2935L157.899 40.5041L158.365 40.5642C159.588 40.7447 160.546 40.8349 161.238 40.8349C161.819 40.8349 162.636 40.7247 163.689 40.5041L163.99 40.7447C164.12 40.5843 164.21 40.4991 164.26 40.489L164.922 40.3988C165.032 40.3888 165.198 40.2785 165.418 40.0679C165.789 40.0579 166.025 40.0379 166.125 40.0078L166.967 39.7972C167.409 39.707 167.795 39.5767 168.125 39.4062C168.326 39.306 168.476 39.2558 168.577 39.2558C168.617 39.2558 168.697 39.2759 168.817 39.316C168.907 39.2057 169.038 39.1205 169.208 39.0603C170.341 38.5691 171.143 38.1079 171.614 37.6767C171.715 37.5965 172.156 37.3459 172.938 36.9248C172.988 36.8947 173.093 36.7293 173.254 36.4285C173.484 36.1478 173.635 35.9673 173.705 35.8871C173.815 35.7668 174.056 35.6414 174.427 35.5111L174.457 35.1953C175.379 35.0449 175.84 34.9346 175.84 34.8644C175.84 34.7942 175.364 34.704 174.412 34.5937C174.562 34.303 174.662 34.1075 174.713 34.0072C174.723 33.9571 174.783 33.6864 174.893 33.1951C174.953 33.0247 174.988 32.8743 174.998 32.7439L174.938 32.6838L175.209 32.4732C175.099 32.3028 175.043 32.1925 175.043 32.1424L175.043 31.4054L174.743 30.864L174.758 30.4279C174.758 30.1271 174.447 29.5757 173.825 28.7736C173.585 28.4528 173.093 27.9264 172.351 27.1945C172.371 27.0842 172.381 26.989 172.381 26.9088C172.381 26.8286 172.346 26.7534 172.276 26.6832C172.176 26.5929 172.111 26.5478 172.081 26.5478L171.915 26.5478C171.715 26.4576 171.519 26.3623 171.329 26.2621C170.948 26.0515 170.717 25.9212 170.637 25.8711C170.577 25.831 170.502 25.7307 170.411 25.5703C170.401 25.5603 170.366 25.5352 170.306 25.4951C170.216 25.445 170.126 25.3848 170.035 25.3146C169.835 25.1642 169.629 25.059 169.419 24.9988L169.103 24.8033C168.933 24.7131 168.832 24.6529 168.802 24.6228C168.782 24.6028 168.697 24.4223 168.547 24.0814C168.526 24.0413 168.486 24.0213 168.426 24.0213C168.396 24.0213 168.221 24.0914 167.9 24.2318C167.87 24.2418 167.845 24.2469 167.825 24.2469C167.694 24.2469 167.549 24.2017 167.389 24.1115C167.188 23.9812 166.947 23.8659 166.667 23.7656L166.366 23.6152L165.012 23.2092L164.08 22.7129C163.799 22.6026 163.579 22.4823 163.418 22.3519C163.077 22.5123 162.877 22.5926 162.817 22.5926L161.974 22.3219L161.433 22.1113L160.816 22.0211L160.32 21.9008L160.034 21.8556L159.478 21.7353C158.626 21.6551 158.185 21.615 158.155 21.615L157.357 21.6451L156.124 21.6C155.673 21.6 155.217 21.8105 154.756 22.2316C154.786 22.4722 154.851 22.8432 154.951 23.3445C154.961 23.3846 154.966 23.4297 154.966 23.4799C154.966 23.5901 154.921 23.7756 154.831 24.0363L154.801 24.0363C154.56 24.0363 154.395 24.0714 154.305 24.1416C154.355 24.4925 154.39 24.698 154.41 24.7582C154.43 24.8083 154.535 24.9387 154.726 25.1492C154.686 25.2996 154.66 25.465 154.65 25.6455L154.65 26.217C154.65 26.3273 154.686 26.598 154.756 27.0291C154.776 27.1995 154.786 27.3599 154.786 27.5103C154.786 27.6407 154.776 27.8261 154.756 28.0668L154.68 28.9541L154.65 29.2699L154.801 29.8414L154.831 30.5783C154.901 30.9894 154.936 31.2601 154.936 31.3904C154.936 31.5809 154.891 31.9067 154.801 32.3679L154.56 32.3679L154.635 33.1199C154.896 33.3204 155.026 33.5209 155.026 33.7215L155.011 34.7291C155.011 34.8193 155.016 34.9647 155.026 35.1652L154.936 35.2554L154.861 35.2554L154.801 35.3156L154.801 35.4058C154.65 35.3958 154.525 35.3908 154.425 35.3908C154.274 35.3908 154.169 35.4359 154.109 35.5261L154.109 35.5261ZM98.7152 23.6616C101.134 25.4757 102.545 26.811 102.948 27.6677C103.351 28.5243 103.553 29.1542 103.553 29.5573C103.553 30.2628 103.351 30.8675 102.948 31.3714C102.545 31.8753 102.243 32.1272 102.041 32.1272C101.638 32.1272 101.335 31.4218 101.134 30.0108C100.731 27.9952 99.8238 26.03 98.4128 24.1151L98.7152 23.6616L98.7152 23.6616ZM21.1641 27.592L21.1641 33.6389L26.6063 33.6389L26.6063 27.592L21.1641 27.592L21.1641 27.592ZM84.2028 28.0455L84.2028 38.6276L92.0637 38.6276L92.0637 28.0455L84.2028 28.0455L84.2028 28.0455Z" id="Vector" fill="url(#gradient_1)" fill-rule="evenodd" stroke="none" />
  </g>
</svg>