<svg xmlns="http://www.w3.org/2000/svg" width="275.67" height="66.933" viewBox="0 0 275.67 66.933">
  <path id="Path_6" data-name="Path 6" d="M13579.286-2874.094c15.982-1.232,45.241-7,97.181-18.507l-100.62,24.06A21.418,21.418,0,0,1,13579.286-2874.094Zm-17.322-3.776c-1.516-3.667,16.718-7.792,35.161-11.738-7.3,4.947-13.87,10.6-17.839,15.514-2.211.171-4.17.254-5.9.254C13566.271-2873.839,13563.046-2875.257,13561.964-2877.87Zm52.073-21.071a6.966,6.966,0,0,1-4.026-4.815,22.4,22.4,0,0,1-.09-2.242,13.089,13.089,0,0,1,.727-3.713,12.563,12.563,0,0,1,2.481-4.37,13.018,13.018,0,0,1,4.132-3.253,11.125,11.125,0,0,1,5.055-1.187,12,12,0,0,1,5.713,1.758,8.369,8.369,0,0,1,2.371,1.889,3.339,3.339,0,0,1,.879,2.152,4.5,4.5,0,0,1-.042.616,3.3,3.3,0,0,1-2.595,3.384,9.515,9.515,0,0,1-2.547.308l-6.329-.263a7.492,7.492,0,0,0-4.834,1.36,4.044,4.044,0,0,0-1.363,2.242q1.1,4,5.626,4a10.325,10.325,0,0,0,1.073-.06,33.924,33.924,0,0,1,3.908-.861,57.384,57.384,0,0,0,6.663-2.594,1.029,1.029,0,0,1,.792.329,1.09,1.09,0,0,1,.309.768,7.69,7.69,0,0,1-1.248,1.582,9.256,9.256,0,0,1,1.435.477c7.188,3.089-14.042,7.343-35,11.827A99.191,99.191,0,0,1,13614.037-2898.941Zm6.915-16.57a20.042,20.042,0,0,0-2.812,1.031q-3.032,1.407-3.031,2.945,3.513.306,5.273.308,4.878,0,6.592-.834,1.053-.441,1.055-1.1a1.931,1.931,0,0,0-.989-1.495,6.963,6.963,0,0,0-2.045-1.01,6.539,6.539,0,0,0-1.758-.308A9.434,9.434,0,0,0,13620.952-2915.511Zm152.909,18.17c-.25-.408-.439-.723-.571-.945a2.955,2.955,0,0,0-.287-.419,29.954,29.954,0,0,0,8.3-4.042q2.2-1.583,2.2-2.592c0-.675-.861-1.01-2.592-1.01a34.863,34.863,0,0,0-7.6,1.228,6,6,0,0,1-3.955-1.626,3.859,3.859,0,0,1-1.45-2.744,4.454,4.454,0,0,1,.789-2.55,9.6,9.6,0,0,1,2.111-2.177,17.216,17.216,0,0,1,3.076-1.844,20.4,20.4,0,0,1,8.921-2.066,13.147,13.147,0,0,1,2.637.263,1.093,1.093,0,0,1,1.231.924,18.2,18.2,0,0,1,.173,3.031,13.91,13.91,0,0,0-5.844-1.187,12.536,12.536,0,0,0-6.679,1.626,4.909,4.909,0,0,0-2.813,4.132q0,1.23,1.8,1.232l3.208-.353a33.649,33.649,0,0,1,6.637-.879q4.833,0,4.834,2.46,0,1.848-2.682,4.308a29.062,29.062,0,0,1-10.765,5.844C13774.335-2896.725,13774.11-2896.929,13773.861-2897.341Zm-133.552,0q-.374-.612-.571-.945a3.051,3.051,0,0,0-.283-.419,30.063,30.063,0,0,0,8.3-4.042q2.2-1.583,2.2-2.592t-2.6-1.01a34.908,34.908,0,0,0-7.6,1.228,6,6,0,0,1-3.956-1.626,3.857,3.857,0,0,1-1.449-2.744,4.457,4.457,0,0,1,.792-2.55,9.535,9.535,0,0,1,2.111-2.177,17.216,17.216,0,0,1,3.076-1.844,20.383,20.383,0,0,1,8.921-2.066,13.205,13.205,0,0,1,2.637.263,1.091,1.091,0,0,1,1.229.924,18.223,18.223,0,0,1,.176,3.031,13.93,13.93,0,0,0-5.845-1.187,12.525,12.525,0,0,0-6.678,1.626,4.908,4.908,0,0,0-2.813,4.132q0,1.23,1.8,1.232l3.207-.353a33.693,33.693,0,0,1,6.637-.879q4.833,0,4.835,2.46,0,1.848-2.683,4.308a29.03,29.03,0,0,1-10.765,5.844C13640.787-2896.725,13640.559-2896.929,13640.31-2897.341Zm-48.715-4.879.09-7.031a11.57,11.57,0,0,0-.308-2.855h-6.81l-.09-3.031h6.592v-11.34a2.051,2.051,0,0,1,.525-.789,1.685,1.685,0,0,1,1.035-.616,2.617,2.617,0,0,1,.723.086,1.377,1.377,0,0,1,.661.616,40.233,40.233,0,0,1,.7,8.744q0,1.453.132,2.858a22.577,22.577,0,0,1,2.813-.177h2.283a13.216,13.216,0,0,0,1.54-.086l-.131,3.163-6.416-.177.218,15.163a3.483,3.483,0,0,1-1.363.349Q13591.6-2897.341,13591.595-2902.22Zm-18.19,0,.086-7.031a11.385,11.385,0,0,0-.308-2.855h-6.81l-.091-3.031h6.593v-11.34a2.1,2.1,0,0,1,.529-.789,1.668,1.668,0,0,1,1.031-.616,2.646,2.646,0,0,1,.727.086,1.373,1.373,0,0,1,.657.616,39.985,39.985,0,0,1,.7,8.744q0,1.453.136,2.858a22.5,22.5,0,0,1,2.81-.177h2.287a13.109,13.109,0,0,0,1.536-.086l-.131,3.163-6.416-.177.218,15.163a3.482,3.482,0,0,1-1.359.349Q13573.4-2897.341,13573.4-2902.22Zm190.985,4.353a8.605,8.605,0,0,0-1.142-.132,16.189,16.189,0,0,1-.484-3.581c-.027-1.218-.045-2.339-.045-3.364l.045-2.682a37.279,37.279,0,0,0-.571-7.689q.353-.659-1.055-.661a13.506,13.506,0,0,0-3.865.747,26.842,26.842,0,0,0-3.869,1.495q-3.561,1.713-3.955,3.339v11.955h-2.944q-.571-1.495-.571-8.395,0-6.151.242-9.052a27.382,27.382,0,0,1,.374-3.3,3.712,3.712,0,0,1,1.844-.747q1.1,0,1.1,2.6a17.173,17.173,0,0,1-.11,1.955c-.073.63-.111,1.062-.111,1.3q7.122-5.232,11.032-5.232,4.437,0,5.052,7.163.265,2.507.263,6.945l-.041,3.471q0,1.936.086,3.737a1.513,1.513,0,0,1-.7.263A5.463,5.463,0,0,0,13764.39-2897.867Zm-81.169,0a8.446,8.446,0,0,0-1.142-.132,16.36,16.36,0,0,1-.48-3.581q-.047-1.827-.046-3.364l.046-2.682a36.94,36.94,0,0,0-.575-7.689q.353-.659-1.052-.661a13.528,13.528,0,0,0-3.868.747,26.726,26.726,0,0,0-3.865,1.495q-3.561,1.713-3.955,3.339v11.955h-2.945q-.571-1.495-.57-8.395,0-6.151.242-9.052a27.607,27.607,0,0,1,.37-3.3,3.709,3.709,0,0,1,1.848-.747q1.1,0,1.1,2.6a16.32,16.32,0,0,1-.11,1.955c-.073.63-.107,1.062-.107,1.3q7.116-5.232,11.028-5.232,4.437,0,5.056,7.163.264,2.507.263,6.945l-.045,3.471q0,1.936.09,3.737a1.543,1.543,0,0,1-.7.263C13683.705-2897.767,13683.516-2897.808,13683.221-2897.867Zm-78.791-.132q0-2.289-.132-5.844t-.2-6.2q-.067-2.637-.155-5.01t-.177-4.239q-.088-1.869-.107-2.768a37.976,37.976,0,0,0-.727-4.419c.263-.349.519-.688.769-1.01a1.281,1.281,0,0,1,1.076-.485q1.541,0,2.373,12.966.441,7.516.439,15.028,0,2.024-2.812,2.021Zm-59.743-1.889q-2.133-1.936-2.131-6.46a9.758,9.758,0,0,1,4.48-8.35,17.862,17.862,0,0,1,8.568-3.035h1.231a8.267,8.267,0,0,1,2.592.574,7.719,7.719,0,0,1,4.924,4.35,5.533,5.533,0,0,1,.526,2.086,10.629,10.629,0,0,1-.045,1.208,10.271,10.271,0,0,1-4.174,8.658,15.65,15.65,0,0,1-9.668,2.9Q13546.818-2897.957,13544.687-2899.888Zm8.523-14.769a9.266,9.266,0,0,0-3.273,1.363q-3.338,2.154-4.35,8,0,2.725,1.449,3.692a7.158,7.158,0,0,0,3.692.7,23.515,23.515,0,0,0,4.567-.395,10.287,10.287,0,0,0,3.516-1.363,7.22,7.22,0,0,0,3.3-6.547,6.467,6.467,0,0,0-1.4-4.3,5.056,5.056,0,0,0-4.046-1.8Q13554.947-2915.008,13553.21-2914.657Zm147.7,16.305a12.624,12.624,0,0,1-3.318-1.142,5.861,5.861,0,0,1-3.558-5.45V-2906a6.147,6.147,0,0,1,.658-2.263,11.6,11.6,0,0,1,1.979-2.945,17.891,17.891,0,0,1,3.077-2.7,19.736,19.736,0,0,1,7.733-3.426,11.183,11.183,0,0,1,2.35-.308c.63,0,1.148.007,1.561.021s.834.045,1.273.09a2.92,2.92,0,0,1,1.142.329,2.259,2.259,0,0,1,1.146,2.242q0,1.054-1.5,2.062c-.263.177-.5.339-.7.484a7.466,7.466,0,0,0-.571-1.713,1.548,1.548,0,0,0-1.539-.7,29.588,29.588,0,0,0-8.921,3.294q-4.22,2.507-4.219,5.273a5.041,5.041,0,0,0,.046.661,4.19,4.19,0,0,0,2.151,4,8.77,8.77,0,0,0,4.2.879,14.99,14.99,0,0,0,4.46-.592c1.26-.4,2.481-.834,3.668-1.318s2.353-.931,3.5-1.343a9.711,9.711,0,0,1,3.273-.612c1.038,0,1.561.322,1.561.965a3.391,3.391,0,0,1-.11.682c-.073.308-.471.675-1.187,1.1a15.79,15.79,0,0,1-2.637,1.211q-1.562.571-3.405,1.052t-3.6.837a30,30,0,0,1-5.187.747A17.152,17.152,0,0,1,13700.91-2898.352Zm40.057.086q-.176-1.184-.263-2.107t-.177-1.713a32.018,32.018,0,0,0-.525-3.211,13.736,13.736,0,0,1-8.79,6.419,11.693,11.693,0,0,1-2.308.263c-.688,0-1.26-.007-1.716-.024a8.674,8.674,0,0,1-1.516-.2,5.426,5.426,0,0,1-1.537-.571,2.858,2.858,0,0,1-1.626-2.592,8.161,8.161,0,0,1-.177-1.779,10.71,10.71,0,0,1,.439-2.616,13.691,13.691,0,0,1,1.605-3.516,17.163,17.163,0,0,1,2.834-3.471,16.261,16.261,0,0,1,7.517-4.308,10.014,10.014,0,0,1,2.173-.263,11.1,11.1,0,0,1,1.782.131q2.547,0,3.426,3.471a28.885,28.885,0,0,1,.682,6.132q.108,3.934.218,6.066a20.828,20.828,0,0,0,.55,3.886Zm-11.031-13.357a15.345,15.345,0,0,0-2.854,3.163,8.087,8.087,0,0,0-1.758,4.481q0,2.6,2.986,3.076a11.151,11.151,0,0,0,7.561-3.6,15.247,15.247,0,0,0,2.547-3.339,8.761,8.761,0,0,0,1.408-4.263,2.236,2.236,0,0,0-2.5-2.55,4.635,4.635,0,0,0-.616-.042Q13733.5-2914.7,13729.936-2911.622Zm-207.464,13.271c-.412.028-.91.045-1.5.045a13.826,13.826,0,0,1-4.173-.571q-.441-4.178-.439-12.7l.086-11.907-.131-5.668a1.333,1.333,0,0,1,.484-1.1,1.808,1.808,0,0,1,1.184-.395,2.281,2.281,0,0,1,1.276.374.924.924,0,0,1,.439,1.031l.308,18.983a22.132,22.132,0,0,1,7.472-6.194,14.861,14.861,0,0,1,6.854-2.111,4.936,4.936,0,0,1,4,1.671,5.411,5.411,0,0,1,1.055,3.491,8.26,8.26,0,0,1-.812,3.782,14.441,14.441,0,0,1-2.132,3.076,20.392,20.392,0,0,1-3.031,2.744,35.364,35.364,0,0,1-3.471,2.287,49.153,49.153,0,0,1-6.592,3.208A2.546,2.546,0,0,0,13522.472-2898.352Zm5.1-14.765a16.387,16.387,0,0,0-6.592,6.855,7.145,7.145,0,0,0-.834,3.3v1.052c0,.322.3.484.9.484a8.879,8.879,0,0,0,2.219-.353,20.525,20.525,0,0,0,3.187-1.208,22.543,22.543,0,0,0,3.758-2.218,21.226,21.226,0,0,0,6.637-7.339q-.57-2.507-3.429-2.505A11.711,11.711,0,0,0,13527.568-2913.117Zm161.851-11.865a2.5,2.5,0,0,1,.924-.221c.7,0,1.055.516,1.055,1.54a11.324,11.324,0,0,1-1.494,4.748,16.659,16.659,0,0,1-.834,1.491l-2.111.177Zm-29.794,0a2.47,2.47,0,0,1,.921-.221c.705,0,1.055.516,1.055,1.54a11.324,11.324,0,0,1-1.494,4.748,15.739,15.739,0,0,1-.834,1.491l-2.107.177Z" transform="translate(-13514.319 2932.65)" fill="none" stroke="#0b1112" stroke-width="4"/>
</svg>
