<svg xmlns="http://www.w3.org/2000/svg" width="24" height="24" viewBox="0 0 24 24">
  <g id="Group_676" data-name="Group 676" transform="translate(-903.682 -3929.328)">
    <ellipse id="Ellipse_196" data-name="Ellipse 196" cx="12" cy="12" rx="12" ry="12" transform="translate(903.682 3929.328)" fill="#707070"/>
    <path id="Icon_awesome-arrow-right" data-name="Icon awesome-arrow-right" d="M3.552,3.172l.414-.4a.458.458,0,0,1,.632,0L8.223,6.257a.417.417,0,0,1,0,.608L4.6,10.351a.458.458,0,0,1-.632,0l-.414-.4a.419.419,0,0,1,.007-.615L5.807,7.28H.448A.438.438,0,0,1,0,6.849V6.275a.438.438,0,0,1,.448-.43H5.807L3.56,3.787A.416.416,0,0,1,3.552,3.172Z" transform="translate(911.802 3934.924)" fill="#fff"/>
  </g>
</svg>
